<svg xmlns="http://www.w3.org/2000/svg" width="1600" height="980" viewBox="0 0 1600 980">
<defs>
  <linearGradient id="bg" x1="0" y1="0" x2="1" y2="1"><stop offset="0" stop-color="#061a30"/><stop offset="1" stop-color="#020914"/></linearGradient>
  <linearGradient id="card" x1="0" y1="0" x2="1" y2="1"><stop offset="0" stop-color="#0d2945"/><stop offset="1" stop-color="#071827"/></linearGradient>
  <linearGradient id="blueglow" x1="0" y1="0" x2="1" y2="1"><stop offset="0" stop-color="#113b62" stop-opacity=".96"/><stop offset="1" stop-color="#071827" stop-opacity=".96"/></linearGradient>
</defs>
<rect width="1600" height="980" fill="url(#bg)"/><rect x="0" y="0" width="230" height="980" rx="0" fill="#061424" fill-opacity="1" stroke="#1b3852" stroke-width="1"/><text x="26" y="46" font-family="Inter,Arial,sans-serif" font-size="26" font-weight="800" fill="#e9f2ff" fill-opacity="1" text-anchor="start">ARUS</text><text x="28" y="70" font-family="Inter,Arial,sans-serif" font-size="11" font-weight="700" fill="#20c7ff" fill-opacity="1" text-anchor="start">VESSEL INTELLIGENCE</text><rect x="18" y="101" width="194" height="42" rx="9" fill="#0e3760" fill-opacity="1" stroke="#0e3760" stroke-width="1"/><circle cx="34" cy="122" r="5" fill="#20c7ff" stroke="none" stroke-width="1" fill-opacity="1"/><text x="52" y="127" font-family="Inter,Arial,sans-serif" font-size="13" font-weight="600" fill="#e9f2ff" fill-opacity="1" text-anchor="start">Fleet Triage</text><rect x="18" y="153" width="194" height="42" rx="9" fill="transparent" fill-opacity="1" stroke="transparent" stroke-width="1"/><circle cx="34" cy="174" r="5" fill="#9cb2c9" stroke="none" stroke-width="1" fill-opacity="1"/><text x="52" y="179" font-family="Inter,Arial,sans-serif" font-size="13" font-weight="400" fill="#b8c8d8" fill-opacity="1" text-anchor="start">Digital Twin</text><rect x="18" y="205" width="194" height="42" rx="9" fill="transparent" fill-opacity="1" stroke="transparent" stroke-width="1"/><circle cx="34" cy="226" r="5" fill="#9cb2c9" stroke="none" stroke-width="1" fill-opacity="1"/><text x="52" y="231" font-family="Inter,Arial,sans-serif" font-size="13" font-weight="400" fill="#b8c8d8" fill-opacity="1" text-anchor="start">Sections</text><rect x="18" y="257" width="194" height="42" rx="9" fill="transparent" fill-opacity="1" stroke="transparent" stroke-width="1"/><circle cx="34" cy="278" r="5" fill="#9cb2c9" stroke="none" stroke-width="1" fill-opacity="1"/><text x="52" y="283" font-family="Inter,Arial,sans-serif" font-size="13" font-weight="400" fill="#b8c8d8" fill-opacity="1" text-anchor="start">Equipment</text><rect x="18" y="309" width="194" height="42" rx="9" fill="transparent" fill-opacity="1" stroke="transparent" stroke-width="1"/><circle cx="34" cy="330" r="5" fill="#9cb2c9" stroke="none" stroke-width="1" fill-opacity="1"/><text x="52" y="335" font-family="Inter,Arial,sans-serif" font-size="13" font-weight="400" fill="#b8c8d8" fill-opacity="1" text-anchor="start">Performance</text><rect x="18" y="361" width="194" height="42" rx="9" fill="transparent" fill-opacity="1" stroke="transparent" stroke-width="1"/><circle cx="34" cy="382" r="5" fill="#9cb2c9" stroke="none" stroke-width="1" fill-opacity="1"/><text x="52" y="387" font-family="Inter,Arial,sans-serif" font-size="13" font-weight="400" fill="#b8c8d8" fill-opacity="1" text-anchor="start">Health</text><rect x="18" y="413" width="194" height="42" rx="9" fill="transparent" fill-opacity="1" stroke="transparent" stroke-width="1"/><circle cx="34" cy="434" r="5" fill="#9cb2c9" stroke="none" stroke-width="1" fill-opacity="1"/><text x="52" y="439" font-family="Inter,Arial,sans-serif" font-size="13" font-weight="400" fill="#b8c8d8" fill-opacity="1" text-anchor="start">Alerts</text><rect x="18" y="465" width="194" height="42" rx="9" fill="transparent" fill-opacity="1" stroke="transparent" stroke-width="1"/><circle cx="34" cy="486" r="5" fill="#9cb2c9" stroke="none" stroke-width="1" fill-opacity="1"/><text x="52" y="491" font-family="Inter,Arial,sans-serif" font-size="13" font-weight="400" fill="#b8c8d8" fill-opacity="1" text-anchor="start">Maintenance</text><rect x="18" y="517" width="194" height="42" rx="9" fill="transparent" fill-opacity="1" stroke="transparent" stroke-width="1"/><circle cx="34" cy="538" r="5" fill="#9cb2c9" stroke="none" stroke-width="1" fill-opacity="1"/><text x="52" y="543" font-family="Inter,Arial,sans-serif" font-size="13" font-weight="400" fill="#b8c8d8" fill-opacity="1" text-anchor="start">Expert Cases</text><rect x="18" y="569" width="194" height="42" rx="9" fill="transparent" fill-opacity="1" stroke="transparent" stroke-width="1"/><circle cx="34" cy="590" r="5" fill="#9cb2c9" stroke="none" stroke-width="1" fill-opacity="1"/><text x="52" y="595" font-family="Inter,Arial,sans-serif" font-size="13" font-weight="400" fill="#b8c8d8" fill-opacity="1" text-anchor="start">Reports</text><rect x="18" y="621" width="194" height="42" rx="9" fill="transparent" fill-opacity="1" stroke="transparent" stroke-width="1"/><circle cx="34" cy="642" r="5" fill="#9cb2c9" stroke="none" stroke-width="1" fill-opacity="1"/><text x="52" y="647" font-family="Inter,Arial,sans-serif" font-size="13" font-weight="400" fill="#b8c8d8" fill-opacity="1" text-anchor="start">Diagram Admin</text><rect x="18" y="673" width="194" height="42" rx="9" fill="transparent" fill-opacity="1" stroke="transparent" stroke-width="1"/><circle cx="34" cy="694" r="5" fill="#9cb2c9" stroke="none" stroke-width="1" fill-opacity="1"/><text x="52" y="699" font-family="Inter,Arial,sans-serif" font-size="13" font-weight="400" fill="#b8c8d8" fill-opacity="1" text-anchor="start">Settings</text><text x="24" y="918" font-family="Inter,Arial,sans-serif" font-size="12" font-weight="400" fill="#9cb2c9" fill-opacity="1" text-anchor="start">Data Status</text><circle cx="114" cy="914" r="5" fill="#62d85f" stroke="none" stroke-width="1" fill-opacity="1"/><text x="126" y="918" font-family="Inter,Arial,sans-serif" font-size="12" font-weight="600" fill="#62d85f" fill-opacity="1" text-anchor="start">Live</text><rect x="230" y="0" width="1370" height="78" rx="0" fill="#071a2d" fill-opacity="1" stroke="#1b3852" stroke-width="1"/><rect x="260" y="18" width="285" height="42" rx="10" fill="#0b233b" fill-opacity="1" stroke="#254866" stroke-width="1"/><text x="282" y="44" font-family="Inter,Arial,sans-serif" font-size="16" font-weight="700" fill="#e9f2ff" fill-opacity="1" text-anchor="start">MV ARUS EXPLORER</text><text x="426" y="44" font-family="Inter,Arial,sans-serif" font-size="16" font-weight="400" fill="#9cb2c9" fill-opacity="1" text-anchor="start">▾</text><rect x="560" y="22" width="110" height="32" rx="16.0" fill="#62d85f" fill-opacity="0.13" stroke="#62d85f" stroke-width="1"/><text x="615.0" y="43.0" font-family="Inter,Arial,sans-serif" font-size="12" font-weight="700" fill="#62d85f" fill-opacity="1" text-anchor="middle">Online</text><text x="1270" y="44" font-family="Inter,Arial,sans-serif" font-size="13" font-weight="400" fill="#9cb2c9" fill-opacity="1" text-anchor="start">09:42 UTC</text><text x="1390" y="44" font-family="Inter,Arial,sans-serif" font-size="13" font-weight="600" fill="#e9f2ff" fill-opacity="1" text-anchor="start">Notifications 3</text><text x="1510" y="44" font-family="Inter,Arial,sans-serif" font-size="13" font-weight="600" fill="#e9f2ff" fill-opacity="1" text-anchor="start">Admin ▾</text><text x="260" y="120" font-family="Inter,Arial,sans-serif" font-size="24" font-weight="800" fill="#e9f2ff" fill-opacity="1" text-anchor="start">Fleet &amp; Vessel Intelligence</text><text x="260" y="145" font-family="Inter,Arial,sans-serif" font-size="13" font-weight="400" fill="#9cb2c9" fill-opacity="1" text-anchor="start">Fleet triage remains inside the new Vessel Intelligence hub.</text><rect x="260" y="170" width="1320" height="750" rx="12" fill="transparent" fill-opacity="1" stroke="transparent" stroke-width="1"/><rect x="260" y="170" width="390" height="250" rx="14" fill="url(#card)" fill-opacity="1" stroke="#1d405f" stroke-width="1"/><text x="282" y="205" font-family="Inter,Arial,sans-serif" font-size="16" font-weight="700" fill="#e9f2ff" fill-opacity="1" text-anchor="start">Fleet technical triage</text><text x="282" y="227" font-family="Inter,Arial,sans-serif" font-size="12" font-weight="400" fill="#9cb2c9" fill-opacity="1" text-anchor="start">Which vessel needs attention first</text><rect x="282" y="245" width="344" height="42" rx="9" fill="#0b233b" fill-opacity="1" stroke="#24445f" stroke-width="1"/><text x="298" y="263" font-family="Inter,Arial,sans-serif" font-size="13" font-weight="700" fill="#e9f2ff" fill-opacity="1" text-anchor="start">ARUS Explorer</text><text x="298" y="279" font-family="Inter,Arial,sans-serif" font-size="10" font-weight="400" fill="#9cb2c9" fill-opacity="1" text-anchor="start">High cylinder liner vibration</text><circle cx="584" cy="266" r="18" fill="none" stroke="#ff514a" stroke-width="4" fill-opacity="1"/><text x="584" y="270" font-family="Inter,Arial,sans-serif" font-size="12" font-weight="700" fill="#e9f2ff" fill-opacity="1" text-anchor="middle">89</text><rect x="282" y="295" width="344" height="42" rx="9" fill="#0b233b" fill-opacity="1" stroke="#24445f" stroke-width="1"/><text x="298" y="313" font-family="Inter,Arial,sans-serif" font-size="13" font-weight="700" fill="#e9f2ff" fill-opacity="1" text-anchor="start">ARUS Pioneer</text><text x="298" y="329" font-family="Inter,Arial,sans-serif" font-size="10" font-weight="400" fill="#9cb2c9" fill-opacity="1" text-anchor="start">Fuel consumption variance</text><circle cx="584" cy="316" r="18" fill="none" stroke="#f28b2f" stroke-width="4" fill-opacity="1"/><text x="584" y="320" font-family="Inter,Arial,sans-serif" font-size="12" font-weight="700" fill="#e9f2ff" fill-opacity="1" text-anchor="middle">76</text><rect x="282" y="345" width="344" height="42" rx="9" fill="#0b233b" fill-opacity="1" stroke="#24445f" stroke-width="1"/><text x="298" y="363" font-family="Inter,Arial,sans-serif" font-size="13" font-weight="700" fill="#e9f2ff" fill-opacity="1" text-anchor="start">ARUS Ranger</text><text x="298" y="379" font-family="Inter,Arial,sans-serif" font-size="10" font-weight="400" fill="#9cb2c9" fill-opacity="1" text-anchor="start">No active critical alerts</text><circle cx="584" cy="366" r="18" fill="none" stroke="#62d85f" stroke-width="4" fill-opacity="1"/><text x="584" y="370" font-family="Inter,Arial,sans-serif" font-size="12" font-weight="700" fill="#e9f2ff" fill-opacity="1" text-anchor="middle">92</text><rect x="282" y="395" width="344" height="42" rx="9" fill="#0b233b" fill-opacity="1" stroke="#24445f" stroke-width="1"/><text x="298" y="413" font-family="Inter,Arial,sans-serif" font-size="13" font-weight="700" fill="#e9f2ff" fill-opacity="1" text-anchor="start">ARUS Pilot 02</text><text x="298" y="429" font-family="Inter,Arial,sans-serif" font-size="10" font-weight="400" fill="#9cb2c9" fill-opacity="1" text-anchor="start">Telemetry stale</text><circle cx="584" cy="416" r="18" fill="none" stroke="#f0c537" stroke-width="4" fill-opacity="1"/><text x="584" y="420" font-family="Inter,Arial,sans-serif" font-size="12" font-weight="700" fill="#e9f2ff" fill-opacity="1" text-anchor="middle">68</text><rect x="670" y="170" width="570" height="250" rx="14" fill="url(#card)" fill-opacity="1" stroke="#1d405f" stroke-width="1"/><text x="694" y="205" font-family="Inter,Arial,sans-serif" font-size="16" font-weight="700" fill="#e9f2ff" fill-opacity="1" text-anchor="start">Fleet map / status</text><text x="694" y="227" font-family="Inter,Arial,sans-serif" font-size="12" font-weight="400" fill="#9cb2c9" fill-opacity="1" text-anchor="start">At sea, in port, idle, offline</text><path d="M720 285 C760 250 820 280 860 246 C900 220 940 260 990 252 C1040 242 1100 286 1160 254" fill="none" stroke="#426a82" stroke-width="2" stroke-opacity="0.8" /><circle cx="760" cy="285" r="6" fill="#62d85f" stroke="none" stroke-width="1" fill-opacity="1"/><circle cx="875" cy="250" r="6" fill="#f28b2f" stroke="none" stroke-width="1" fill-opacity="1"/><circle cx="1010" cy="270" r="6" fill="#ff514a" stroke="none" stroke-width="1" fill-opacity="1"/><circle cx="1120" cy="245" r="6" fill="#62d85f" stroke="none" stroke-width="1" fill-opacity="1"/><circle cx="950" cy="315" r="6" fill="#f0c537" stroke="none" stroke-width="1" fill-opacity="1"/><rect x="1260" y="170" width="320" height="250" rx="14" fill="url(#card)" fill-opacity="1" stroke="#1d405f" stroke-width="1"/><text x="1284" y="205" font-family="Inter,Arial,sans-serif" font-size="16" font-weight="700" fill="#e9f2ff" fill-opacity="1" text-anchor="start">Global queue</text><text x="1284" y="227" font-family="Inter,Arial,sans-serif" font-size="12" font-weight="400" fill="#9cb2c9" fill-opacity="1" text-anchor="start">Cross-fleet items</text><rect x="1284" y="238" width="260" height="32" rx="8" fill="#0b233b" fill-opacity="1" stroke="#24445f" stroke-width="1"/><text x="1300" y="260" font-family="Inter,Arial,sans-serif" font-size="19" font-weight="800" fill="#ff514a" fill-opacity="1" text-anchor="start">12</text><text x="1340" y="258" font-family="Inter,Arial,sans-serif" font-size="12" font-weight="500" fill="#e9f2ff" fill-opacity="1" text-anchor="start">Open technical alerts</text><rect x="1284" y="280" width="260" height="32" rx="8" fill="#0b233b" fill-opacity="1" stroke="#24445f" stroke-width="1"/><text x="1300" y="302" font-family="Inter,Arial,sans-serif" font-size="19" font-weight="800" fill="#f28b2f" fill-opacity="1" text-anchor="start">7</text><text x="1340" y="300" font-family="Inter,Arial,sans-serif" font-size="12" font-weight="500" fill="#e9f2ff" fill-opacity="1" text-anchor="start">Overdue work orders</text><rect x="1284" y="322" width="260" height="32" rx="8" fill="#0b233b" fill-opacity="1" stroke="#24445f" stroke-width="1"/><text x="1300" y="344" font-family="Inter,Arial,sans-serif" font-size="19" font-weight="800" fill="#1684ff" fill-opacity="1" text-anchor="start">5</text><text x="1340" y="342" font-family="Inter,Arial,sans-serif" font-size="12" font-weight="500" fill="#e9f2ff" fill-opacity="1" text-anchor="start">Expert cases</text><rect x="1284" y="364" width="260" height="32" rx="8" fill="#0b233b" fill-opacity="1" stroke="#24445f" stroke-width="1"/><text x="1300" y="386" font-family="Inter,Arial,sans-serif" font-size="19" font-weight="800" fill="#f0c537" fill-opacity="1" text-anchor="start">3</text><text x="1340" y="384" font-family="Inter,Arial,sans-serif" font-size="12" font-weight="500" fill="#e9f2ff" fill-opacity="1" text-anchor="start">Missing data feeds</text><rect x="260" y="440" width="250" height="160" rx="12" fill="url(#card)" fill-opacity="1" stroke="#1d405f" stroke-width="1"/><text x="274" y="466" font-family="Inter,Arial,sans-serif" font-size="12" font-weight="600" fill="#9cb2c9" fill-opacity="1" text-anchor="start">Avg Health</text><text x="274" y="498" font-family="Inter,Arial,sans-serif" font-size="28" font-weight="700" fill="#e9f2ff" fill-opacity="1" text-anchor="start">86</text><text x="494" y="498" font-family="Inter,Arial,sans-serif" font-size="13" font-weight="700" fill="#f0c537" fill-opacity="1" text-anchor="end">-3%</text><rect x="274" y="552" width="222" height="34" rx="8" fill="#082137" fill-opacity="1" stroke="#1c3a54" stroke-width="1"/><line x1="282" y1="574.1" x2="488" y2="574.1" stroke="#67839a" stroke-opacity="0.55" stroke-width="1" stroke-dasharray="5 6"/><path d="M 274.0,564.8 L 287.1,570.1 L 300.1,571.2 L 313.2,573.1 L 326.2,567.7 L 339.3,565.1 L 352.4,562.0 L 365.4,562.0 L 378.5,563.8 L 391.5,567.4 L 404.6,566.9 L 417.6,568.7 L 430.7,564.4 L 443.8,568.5 L 456.8,563.1 L 469.9,562.0 L 482.9,564.1 L 496.0,563.6" fill="none" stroke="#f0c537" stroke-width="2" stroke-opacity="1" /><rect x="530" y="440" width="250" height="160" rx="12" fill="url(#card)" fill-opacity="1" stroke="#1d405f" stroke-width="1"/><text x="544" y="466" font-family="Inter,Arial,sans-serif" font-size="12" font-weight="600" fill="#9cb2c9" fill-opacity="1" text-anchor="start">Fuel Variance</text><text x="544" y="498" font-family="Inter,Arial,sans-serif" font-size="28" font-weight="700" fill="#e9f2ff" fill-opacity="1" text-anchor="start">+4.8%</text><text x="764" y="498" font-family="Inter,Arial,sans-serif" font-size="13" font-weight="700" fill="#f28b2f" fill-opacity="1" text-anchor="end">Watch</text><rect x="544" y="552" width="222" height="34" rx="8" fill="#082137" fill-opacity="1" stroke="#1c3a54" stroke-width="1"/><line x1="552" y1="574.1" x2="758" y2="574.1" stroke="#67839a" stroke-opacity="0.55" stroke-width="1" stroke-dasharray="5 6"/><path d="M 544.0,565.3 L 557.1,562.0 L 570.1,562.0 L 583.2,566.9 L 596.2,572.2 L 609.3,575.6 L 622.4,575.9 L 635.4,576.0 L 648.5,576.0 L 661.5,573.1 L 674.6,570.8 L 687.6,574.8 L 700.7,572.7 L 713.8,571.8 L 726.8,567.3 L 739.9,571.1 L 752.9,565.5 L 766.0,565.5" fill="none" stroke="#f28b2f" stroke-width="2" stroke-opacity="1" /><rect x="800" y="440" width="250" height="160" rx="12" fill="url(#card)" fill-opacity="1" stroke="#1d405f" stroke-width="1"/><text x="814" y="466" font-family="Inter,Arial,sans-serif" font-size="12" font-weight="600" fill="#9cb2c9" fill-opacity="1" text-anchor="start">Open Cases</text><text x="814" y="498" font-family="Inter,Arial,sans-serif" font-size="28" font-weight="700" fill="#e9f2ff" fill-opacity="1" text-anchor="start">5</text><text x="1034" y="498" font-family="Inter,Arial,sans-serif" font-size="13" font-weight="700" fill="#ff514a" fill-opacity="1" text-anchor="end">2 High</text><rect x="814" y="552" width="222" height="34" rx="8" fill="#082137" fill-opacity="1" stroke="#1c3a54" stroke-width="1"/><line x1="822" y1="574.1" x2="1028" y2="574.1" stroke="#67839a" stroke-opacity="0.55" stroke-width="1" stroke-dasharray="5 6"/><path d="M 814.0,571.6 L 827.1,569.4 L 840.1,574.6 L 853.2,570.9 L 866.2,570.5 L 879.3,571.5 L 892.4,571.2 L 905.4,565.9 L 918.5,567.4 L 931.5,570.2 L 944.6,567.6 L 957.6,567.5 L 970.7,570.3 L 983.8,566.7 L 996.8,562.0 L 1009.9,565.3 L 1022.9,568.1 L 1036.0,568.5" fill="none" stroke="#ff514a" stroke-width="2" stroke-opacity="1" /><rect x="1070" y="440" width="250" height="160" rx="12" fill="url(#card)" fill-opacity="1" stroke="#1d405f" stroke-width="1"/><text x="1084" y="466" font-family="Inter,Arial,sans-serif" font-size="12" font-weight="600" fill="#9cb2c9" fill-opacity="1" text-anchor="start">Data Freshness</text><text x="1084" y="498" font-family="Inter,Arial,sans-serif" font-size="28" font-weight="700" fill="#e9f2ff" fill-opacity="1" text-anchor="start">92%</text><text x="1304" y="498" font-family="Inter,Arial,sans-serif" font-size="13" font-weight="700" fill="#62d85f" fill-opacity="1" text-anchor="end">Live</text><rect x="1084" y="552" width="222" height="34" rx="8" fill="#082137" fill-opacity="1" stroke="#1c3a54" stroke-width="1"/><line x1="1092" y1="574.1" x2="1298" y2="574.1" stroke="#67839a" stroke-opacity="0.55" stroke-width="1" stroke-dasharray="5 6"/><path d="M 1084.0,576.0 L 1097.1,576.0 L 1110.1,574.1 L 1123.2,575.8 L 1136.2,576.0 L 1149.3,576.0 L 1162.4,576.0 L 1175.4,574.7 L 1188.5,572.0 L 1201.5,571.9 L 1214.6,566.2 L 1227.6,562.0 L 1240.7,566.2 L 1253.8,567.4 L 1266.8,562.3 L 1279.9,562.0 L 1292.9,567.4 L 1306.0,572.3" fill="none" stroke="#62d85f" stroke-width="2" stroke-opacity="1" /><rect x="260" y="625" width="1320" height="295" rx="14" fill="url(#card)" fill-opacity="1" stroke="#1d405f" stroke-width="1"/><text x="286" y="660" font-family="Inter,Arial,sans-serif" font-size="16" font-weight="700" fill="#e9f2ff" fill-opacity="1" text-anchor="start">Fleet action board</text><text x="286" y="682" font-family="Inter,Arial,sans-serif" font-size="12" font-weight="400" fill="#9cb2c9" fill-opacity="1" text-anchor="start">Data-driven redirects into Vessel Intelligence vessel pages</text><text x="286" y="700" font-family="Inter,Arial,sans-serif" font-size="11" font-weight="700" fill="#9cb2c9" fill-opacity="1" text-anchor="start">Vessel</text><text x="440" y="700" font-family="Inter,Arial,sans-serif" font-size="11" font-weight="700" fill="#9cb2c9" fill-opacity="1" text-anchor="start">Top issue</text><text x="720" y="700" font-family="Inter,Arial,sans-serif" font-size="11" font-weight="700" fill="#9cb2c9" fill-opacity="1" text-anchor="start">Section</text><text x="850" y="700" font-family="Inter,Arial,sans-serif" font-size="11" font-weight="700" fill="#9cb2c9" fill-opacity="1" text-anchor="start">Equipment</text><text x="1020" y="700" font-family="Inter,Arial,sans-serif" font-size="11" font-weight="700" fill="#9cb2c9" fill-opacity="1" text-anchor="start">Action</text><text x="1260" y="700" font-family="Inter,Arial,sans-serif" font-size="11" font-weight="700" fill="#9cb2c9" fill-opacity="1" text-anchor="start">Owner</text><text x="1420" y="700" font-family="Inter,Arial,sans-serif" font-size="11" font-weight="700" fill="#9cb2c9" fill-opacity="1" text-anchor="start">Due</text><line x1="286" y1="708" x2="1540" y2="708" stroke="#1d405f" stroke-opacity="1" stroke-width="1"/><text x="286" y="730" font-family="Inter,Arial,sans-serif" font-size="13" font-weight="600" fill="#e9f2ff" fill-opacity="1" text-anchor="start">ARUS Explorer</text><text x="440" y="730" font-family="Inter,Arial,sans-serif" font-size="13" font-weight="400" fill="#e9f2ff" fill-opacity="1" text-anchor="start">High cylinder liner vibration</text><text x="720" y="730" font-family="Inter,Arial,sans-serif" font-size="13" font-weight="400" fill="#9cb2c9" fill-opacity="1" text-anchor="start">03 Engine Room</text><text x="850" y="730" font-family="Inter,Arial,sans-serif" font-size="13" font-weight="400" fill="#9cb2c9" fill-opacity="1" text-anchor="start">ME-01</text><text x="1020" y="730" font-family="Inter,Arial,sans-serif" font-size="13" font-weight="400" fill="#9cb2c9" fill-opacity="1" text-anchor="start">Create WO</text><text x="1260" y="730" font-family="Inter,Arial,sans-serif" font-size="13" font-weight="400" fill="#9cb2c9" fill-opacity="1" text-anchor="start">Chief Eng</text><text x="1420" y="730" font-family="Inter,Arial,sans-serif" font-size="13" font-weight="400" fill="#9cb2c9" fill-opacity="1" text-anchor="start">12h</text><line x1="286" y1="760" x2="1540" y2="760" stroke="#1d405f" stroke-opacity="1" stroke-width="1"/><text x="286" y="782" font-family="Inter,Arial,sans-serif" font-size="13" font-weight="600" fill="#e9f2ff" fill-opacity="1" text-anchor="start">ARUS Pioneer</text><text x="440" y="782" font-family="Inter,Arial,sans-serif" font-size="13" font-weight="400" fill="#e9f2ff" fill-opacity="1" text-anchor="start">Fuel model +6.2%</text><text x="720" y="782" font-family="Inter,Arial,sans-serif" font-size="13" font-weight="400" fill="#9cb2c9" fill-opacity="1" text-anchor="start">05 Fuel/Lube</text><text x="850" y="782" font-family="Inter,Arial,sans-serif" font-size="13" font-weight="400" fill="#9cb2c9" fill-opacity="1" text-anchor="start">FT-01</text><text x="1020" y="782" font-family="Inter,Arial,sans-serif" font-size="13" font-weight="400" fill="#9cb2c9" fill-opacity="1" text-anchor="start">Open case</text><text x="1260" y="782" font-family="Inter,Arial,sans-serif" font-size="13" font-weight="400" fill="#9cb2c9" fill-opacity="1" text-anchor="start">Fleet Mgr</text><text x="1420" y="782" font-family="Inter,Arial,sans-serif" font-size="13" font-weight="400" fill="#9cb2c9" fill-opacity="1" text-anchor="start">1d</text><line x1="286" y1="812" x2="1540" y2="812" stroke="#1d405f" stroke-opacity="1" stroke-width="1"/><text x="286" y="834" font-family="Inter,Arial,sans-serif" font-size="13" font-weight="600" fill="#e9f2ff" fill-opacity="1" text-anchor="start">ARUS Pilot 02</text><text x="440" y="834" font-family="Inter,Arial,sans-serif" font-size="13" font-weight="400" fill="#e9f2ff" fill-opacity="1" text-anchor="start">AIS feed stale</text><text x="720" y="834" font-family="Inter,Arial,sans-serif" font-size="13" font-weight="400" fill="#9cb2c9" fill-opacity="1" text-anchor="start">09 Nav/Comms</text><text x="850" y="834" font-family="Inter,Arial,sans-serif" font-size="13" font-weight="400" fill="#9cb2c9" fill-opacity="1" text-anchor="start">AIS-01</text><text x="1020" y="834" font-family="Inter,Arial,sans-serif" font-size="13" font-weight="400" fill="#9cb2c9" fill-opacity="1" text-anchor="start">Check data</text><text x="1260" y="834" font-family="Inter,Arial,sans-serif" font-size="13" font-weight="400" fill="#9cb2c9" fill-opacity="1" text-anchor="start">Tech</text><text x="1420" y="834" font-family="Inter,Arial,sans-serif" font-size="13" font-weight="400" fill="#9cb2c9" fill-opacity="1" text-anchor="start">4h</text>
</svg>