<svg xmlns="http://www.w3.org/2000/svg" width="1600" height="980" viewBox="0 0 1600 980">
<defs>
  <linearGradient id="bg" x1="0" y1="0" x2="1" y2="1"><stop offset="0" stop-color="#061a30"/><stop offset="1" stop-color="#020914"/></linearGradient>
  <linearGradient id="card" x1="0" y1="0" x2="1" y2="1"><stop offset="0" stop-color="#0d2945"/><stop offset="1" stop-color="#071827"/></linearGradient>
  <linearGradient id="blueglow" x1="0" y1="0" x2="1" y2="1"><stop offset="0" stop-color="#113b62" stop-opacity=".96"/><stop offset="1" stop-color="#071827" stop-opacity=".96"/></linearGradient>
</defs>
<rect width="1600" height="980" fill="url(#bg)"/><rect x="0" y="0" width="230" height="980" rx="0" fill="#061424" fill-opacity="1" stroke="#1b3852" stroke-width="1"/><text x="26" y="46" font-family="Inter,Arial,sans-serif" font-size="26" font-weight="800" fill="#e9f2ff" fill-opacity="1" text-anchor="start">ARUS</text><text x="28" y="70" font-family="Inter,Arial,sans-serif" font-size="11" font-weight="700" fill="#20c7ff" fill-opacity="1" text-anchor="start">VESSEL INTELLIGENCE</text><rect x="18" y="101" width="194" height="42" rx="9" fill="transparent" fill-opacity="1" stroke="transparent" stroke-width="1"/><circle cx="34" cy="122" r="5" fill="#9cb2c9" stroke="none" stroke-width="1" fill-opacity="1"/><text x="52" y="127" font-family="Inter,Arial,sans-serif" font-size="13" font-weight="400" fill="#b8c8d8" fill-opacity="1" text-anchor="start">Fleet Triage</text><rect x="18" y="153" width="194" height="42" rx="9" fill="transparent" fill-opacity="1" stroke="transparent" stroke-width="1"/><circle cx="34" cy="174" r="5" fill="#9cb2c9" stroke="none" stroke-width="1" fill-opacity="1"/><text x="52" y="179" font-family="Inter,Arial,sans-serif" font-size="13" font-weight="400" fill="#b8c8d8" fill-opacity="1" text-anchor="start">Digital Twin</text><rect x="18" y="205" width="194" height="42" rx="9" fill="transparent" fill-opacity="1" stroke="transparent" stroke-width="1"/><circle cx="34" cy="226" r="5" fill="#9cb2c9" stroke="none" stroke-width="1" fill-opacity="1"/><text x="52" y="231" font-family="Inter,Arial,sans-serif" font-size="13" font-weight="400" fill="#b8c8d8" fill-opacity="1" text-anchor="start">Sections</text><rect x="18" y="257" width="194" height="42" rx="9" fill="transparent" fill-opacity="1" stroke="transparent" stroke-width="1"/><circle cx="34" cy="278" r="5" fill="#9cb2c9" stroke="none" stroke-width="1" fill-opacity="1"/><text x="52" y="283" font-family="Inter,Arial,sans-serif" font-size="13" font-weight="400" fill="#b8c8d8" fill-opacity="1" text-anchor="start">Equipment</text><rect x="18" y="309" width="194" height="42" rx="9" fill="#0e3760" fill-opacity="1" stroke="#0e3760" stroke-width="1"/><circle cx="34" cy="330" r="5" fill="#20c7ff" stroke="none" stroke-width="1" fill-opacity="1"/><text x="52" y="335" font-family="Inter,Arial,sans-serif" font-size="13" font-weight="600" fill="#e9f2ff" fill-opacity="1" text-anchor="start">Performance</text><rect x="18" y="361" width="194" height="42" rx="9" fill="transparent" fill-opacity="1" stroke="transparent" stroke-width="1"/><circle cx="34" cy="382" r="5" fill="#9cb2c9" stroke="none" stroke-width="1" fill-opacity="1"/><text x="52" y="387" font-family="Inter,Arial,sans-serif" font-size="13" font-weight="400" fill="#b8c8d8" fill-opacity="1" text-anchor="start">Health</text><rect x="18" y="413" width="194" height="42" rx="9" fill="transparent" fill-opacity="1" stroke="transparent" stroke-width="1"/><circle cx="34" cy="434" r="5" fill="#9cb2c9" stroke="none" stroke-width="1" fill-opacity="1"/><text x="52" y="439" font-family="Inter,Arial,sans-serif" font-size="13" font-weight="400" fill="#b8c8d8" fill-opacity="1" text-anchor="start">Alerts</text><rect x="18" y="465" width="194" height="42" rx="9" fill="transparent" fill-opacity="1" stroke="transparent" stroke-width="1"/><circle cx="34" cy="486" r="5" fill="#9cb2c9" stroke="none" stroke-width="1" fill-opacity="1"/><text x="52" y="491" font-family="Inter,Arial,sans-serif" font-size="13" font-weight="400" fill="#b8c8d8" fill-opacity="1" text-anchor="start">Maintenance</text><rect x="18" y="517" width="194" height="42" rx="9" fill="transparent" fill-opacity="1" stroke="transparent" stroke-width="1"/><circle cx="34" cy="538" r="5" fill="#9cb2c9" stroke="none" stroke-width="1" fill-opacity="1"/><text x="52" y="543" font-family="Inter,Arial,sans-serif" font-size="13" font-weight="400" fill="#b8c8d8" fill-opacity="1" text-anchor="start">Expert Cases</text><rect x="18" y="569" width="194" height="42" rx="9" fill="transparent" fill-opacity="1" stroke="transparent" stroke-width="1"/><circle cx="34" cy="590" r="5" fill="#9cb2c9" stroke="none" stroke-width="1" fill-opacity="1"/><text x="52" y="595" font-family="Inter,Arial,sans-serif" font-size="13" font-weight="400" fill="#b8c8d8" fill-opacity="1" text-anchor="start">Reports</text><rect x="18" y="621" width="194" height="42" rx="9" fill="transparent" fill-opacity="1" stroke="transparent" stroke-width="1"/><circle cx="34" cy="642" r="5" fill="#9cb2c9" stroke="none" stroke-width="1" fill-opacity="1"/><text x="52" y="647" font-family="Inter,Arial,sans-serif" font-size="13" font-weight="400" fill="#b8c8d8" fill-opacity="1" text-anchor="start">Diagram Admin</text><rect x="18" y="673" width="194" height="42" rx="9" fill="transparent" fill-opacity="1" stroke="transparent" stroke-width="1"/><circle cx="34" cy="694" r="5" fill="#9cb2c9" stroke="none" stroke-width="1" fill-opacity="1"/><text x="52" y="699" font-family="Inter,Arial,sans-serif" font-size="13" font-weight="400" fill="#b8c8d8" fill-opacity="1" text-anchor="start">Settings</text><text x="24" y="918" font-family="Inter,Arial,sans-serif" font-size="12" font-weight="400" fill="#9cb2c9" fill-opacity="1" text-anchor="start">Data Status</text><circle cx="114" cy="914" r="5" fill="#62d85f" stroke="none" stroke-width="1" fill-opacity="1"/><text x="126" y="918" font-family="Inter,Arial,sans-serif" font-size="12" font-weight="600" fill="#62d85f" fill-opacity="1" text-anchor="start">Live</text><rect x="230" y="0" width="1370" height="78" rx="0" fill="#071a2d" fill-opacity="1" stroke="#1b3852" stroke-width="1"/><rect x="260" y="18" width="285" height="42" rx="10" fill="#0b233b" fill-opacity="1" stroke="#254866" stroke-width="1"/><text x="282" y="44" font-family="Inter,Arial,sans-serif" font-size="16" font-weight="700" fill="#e9f2ff" fill-opacity="1" text-anchor="start">MV ARUS EXPLORER</text><text x="426" y="44" font-family="Inter,Arial,sans-serif" font-size="16" font-weight="400" fill="#9cb2c9" fill-opacity="1" text-anchor="start">▾</text><rect x="560" y="22" width="110" height="32" rx="16.0" fill="#62d85f" fill-opacity="0.13" stroke="#62d85f" stroke-width="1"/><text x="615.0" y="43.0" font-family="Inter,Arial,sans-serif" font-size="12" font-weight="700" fill="#62d85f" fill-opacity="1" text-anchor="middle">Online</text><text x="1270" y="44" font-family="Inter,Arial,sans-serif" font-size="13" font-weight="400" fill="#9cb2c9" fill-opacity="1" text-anchor="start">09:42 UTC</text><text x="1390" y="44" font-family="Inter,Arial,sans-serif" font-size="13" font-weight="600" fill="#e9f2ff" fill-opacity="1" text-anchor="start">Notifications 3</text><text x="1510" y="44" font-family="Inter,Arial,sans-serif" font-size="13" font-weight="600" fill="#e9f2ff" fill-opacity="1" text-anchor="start">Admin ▾</text><text x="260" y="120" font-family="Inter,Arial,sans-serif" font-size="24" font-weight="800" fill="#e9f2ff" fill-opacity="1" text-anchor="start">Performance &amp; Health</text><text x="260" y="145" font-family="Inter,Arial,sans-serif" font-size="13" font-weight="400" fill="#9cb2c9" fill-opacity="1" text-anchor="start">Digital twin prediction, variance explanation, health score and data freshness.</text><rect x="260" y="168" width="650" height="340" rx="14" fill="url(#card)" fill-opacity="1" stroke="#1d405f" stroke-width="1"/><text x="284" y="202" font-family="Inter,Arial,sans-serif" font-size="16" font-weight="700" fill="#e9f2ff" fill-opacity="1" text-anchor="start">Performance analytics</text><text x="284" y="224" font-family="Inter,Arial,sans-serif" font-size="12" font-weight="400" fill="#9cb2c9" fill-opacity="1" text-anchor="start">Actual vs expected digital twin model</text><rect x="284" y="240" width="140" height="110" rx="12" fill="url(#card)" fill-opacity="1" stroke="#1d405f" stroke-width="1"/><text x="298" y="266" font-family="Inter,Arial,sans-serif" font-size="12" font-weight="600" fill="#9cb2c9" fill-opacity="1" text-anchor="start">Fuel MT/day</text><text x="298" y="298" font-family="Inter,Arial,sans-serif" font-size="28" font-weight="700" fill="#e9f2ff" fill-opacity="1" text-anchor="start">28.4</text><text x="408" y="298" font-family="Inter,Arial,sans-serif" font-size="13" font-weight="700" fill="#ff514a" fill-opacity="1" text-anchor="end">+4.8%</text><rect x="298" y="302" width="112" height="34" rx="8" fill="#082137" fill-opacity="1" stroke="#1c3a54" stroke-width="1"/><line x1="306" y1="324.1" x2="402" y2="324.1" stroke="#67839a" stroke-opacity="0.55" stroke-width="1" stroke-dasharray="5 6"/><path d="M 298.0,316.7 L 304.6,316.4 L 311.2,316.7 L 317.8,315.0 L 324.4,312.0 L 330.9,314.2 L 337.5,315.7 L 344.1,313.9 L 350.7,312.0 L 357.3,312.0 L 363.9,312.0 L 370.5,312.0 L 377.1,315.9 L 383.6,320.8 L 390.2,315.4 L 396.8,320.0 L 403.4,323.6 L 410.0,326.0" fill="none" stroke="#ff514a" stroke-width="2" stroke-opacity="1" /><rect x="444" y="240" width="140" height="110" rx="12" fill="url(#card)" fill-opacity="1" stroke="#1d405f" stroke-width="1"/><text x="458" y="266" font-family="Inter,Arial,sans-serif" font-size="12" font-weight="600" fill="#9cb2c9" fill-opacity="1" text-anchor="start">SFOC g/kWh</text><text x="458" y="298" font-family="Inter,Arial,sans-serif" font-size="28" font-weight="700" fill="#e9f2ff" fill-opacity="1" text-anchor="start">175.6</text><text x="568" y="298" font-family="Inter,Arial,sans-serif" font-size="13" font-weight="700" fill="#62d85f" fill-opacity="1" text-anchor="end">-3.2%</text><rect x="458" y="302" width="112" height="34" rx="8" fill="#082137" fill-opacity="1" stroke="#1c3a54" stroke-width="1"/><line x1="466" y1="324.1" x2="562" y2="324.1" stroke="#67839a" stroke-opacity="0.55" stroke-width="1" stroke-dasharray="5 6"/><path d="M 458.0,315.0 L 464.6,312.0 L 471.2,312.0 L 477.8,314.6 L 484.4,318.5 L 490.9,320.5 L 497.5,323.5 L 504.1,324.3 L 510.7,325.7 L 517.3,326.0 L 523.9,320.5 L 530.5,322.1 L 537.1,325.4 L 543.6,326.0 L 550.2,326.0 L 556.8,323.3 L 563.4,318.2 L 570.0,318.3" fill="none" stroke="#62d85f" stroke-width="2" stroke-opacity="1" /><rect x="604" y="240" width="140" height="110" rx="12" fill="url(#card)" fill-opacity="1" stroke="#1d405f" stroke-width="1"/><text x="618" y="266" font-family="Inter,Arial,sans-serif" font-size="12" font-weight="600" fill="#9cb2c9" fill-opacity="1" text-anchor="start">Propulsion kW</text><text x="618" y="298" font-family="Inter,Arial,sans-serif" font-size="28" font-weight="700" fill="#e9f2ff" fill-opacity="1" text-anchor="start">12,540</text><text x="728" y="298" font-family="Inter,Arial,sans-serif" font-size="13" font-weight="700" fill="#ff514a" fill-opacity="1" text-anchor="end">+2.5%</text><rect x="618" y="302" width="112" height="34" rx="8" fill="#082137" fill-opacity="1" stroke="#1c3a54" stroke-width="1"/><line x1="626" y1="324.1" x2="722" y2="324.1" stroke="#67839a" stroke-opacity="0.55" stroke-width="1" stroke-dasharray="5 6"/><path d="M 618.0,322.4 L 624.6,321.6 L 631.2,318.1 L 637.8,320.9 L 644.4,325.1 L 650.9,326.0 L 657.5,322.7 L 664.1,316.9 L 670.7,316.8 L 677.3,318.9 L 683.9,323.0 L 690.5,325.1 L 697.1,326.0 L 703.6,326.0 L 710.2,326.0 L 716.8,326.0 L 723.4,326.0 L 730.0,321.3" fill="none" stroke="#ff514a" stroke-width="2" stroke-opacity="1" /><rect x="764" y="240" width="120" height="110" rx="12" fill="url(#card)" fill-opacity="1" stroke="#1d405f" stroke-width="1"/><text x="778" y="266" font-family="Inter,Arial,sans-serif" font-size="12" font-weight="600" fill="#9cb2c9" fill-opacity="1" text-anchor="start">EEXI</text><text x="778" y="298" font-family="Inter,Arial,sans-serif" font-size="28" font-weight="700" fill="#e9f2ff" fill-opacity="1" text-anchor="start">6.42</text><text x="868" y="298" font-family="Inter,Arial,sans-serif" font-size="13" font-weight="700" fill="#62d85f" fill-opacity="1" text-anchor="end">-1.1%</text><rect x="778" y="302" width="92" height="34" rx="8" fill="#082137" fill-opacity="1" stroke="#1c3a54" stroke-width="1"/><line x1="786" y1="324.1" x2="862" y2="324.1" stroke="#67839a" stroke-opacity="0.55" stroke-width="1" stroke-dasharray="5 6"/><path d="M 778.0,322.0 L 783.4,325.7 L 788.8,324.9 L 794.2,322.9 L 799.6,320.2 L 805.1,323.5 L 810.5,322.5 L 815.9,317.4 L 821.3,313.1 L 826.7,312.0 L 832.1,317.1 L 837.5,312.0 L 842.9,312.0 L 848.4,315.4 L 853.8,318.0 L 859.2,321.8 L 864.6,326.0 L 870.0,326.0" fill="none" stroke="#62d85f" stroke-width="2" stroke-opacity="1" /><rect x="284" y="375" width="590" height="100" rx="8" fill="#0b233b" fill-opacity="1" stroke="#24445f" stroke-width="1"/><rect x="306" y="395" width="540" height="58" rx="8" fill="#082137" fill-opacity="1" stroke="#1c3a54" stroke-width="1"/><line x1="314" y1="432.7" x2="838" y2="432.7" stroke="#67839a" stroke-opacity="0.55" stroke-width="1" stroke-dasharray="5 6"/><path d="M 306.0,431.4 L 337.8,436.0 L 369.5,435.1 L 401.3,437.1 L 433.1,442.6 L 464.8,441.0 L 496.6,443.0 L 528.4,443.0 L 560.1,443.0 L 591.9,443.0 L 623.6,438.9 L 655.4,443.0 L 687.2,442.7 L 718.9,443.0 L 750.7,443.0 L 782.5,440.1 L 814.2,438.4 L 846.0,438.0" fill="none" stroke="#1684ff" stroke-width="2" stroke-opacity="1" /><text x="306" y="468" font-family="Inter,Arial,sans-serif" font-size="11" font-weight="400" fill="#9cb2c9" fill-opacity="1" text-anchor="start">Blue = actual · dashed = expected twin · red = alert threshold</text><rect x="930" y="168" width="650" height="340" rx="14" fill="url(#card)" fill-opacity="1" stroke="#1d405f" stroke-width="1"/><text x="954" y="202" font-family="Inter,Arial,sans-serif" font-size="16" font-weight="700" fill="#e9f2ff" fill-opacity="1" text-anchor="start">Health monitoring</text><text x="954" y="224" font-family="Inter,Arial,sans-serif" font-size="12" font-weight="400" fill="#9cb2c9" fill-opacity="1" text-anchor="start">System health ranked by risk</text><circle cx="964" cy="245" r="13" fill="#d94c89" stroke="#d5e8ff" stroke-width="1" fill-opacity="0.95"/><text x="964" y="250" font-family="Inter,Arial,sans-serif" font-size="13" font-weight="700" fill="#06111f" fill-opacity="1" text-anchor="middle">1</text><text x="995" y="249" font-family="Inter,Arial,sans-serif" font-size="12" font-weight="600" fill="#e9f2ff" fill-opacity="1" text-anchor="start">Aft Propulsion</text><line x1="1230" y1="245" x2="1480" y2="245" stroke="#62d85f" stroke-opacity="0.85" stroke-width="8"/><text x="1515" y="249" font-family="Inter,Arial,sans-serif" font-size="12" font-weight="700" fill="#62d85f" fill-opacity="1" text-anchor="start">93</text><circle cx="964" cy="283" r="13" fill="#2876dd" stroke="#d5e8ff" stroke-width="1" fill-opacity="0.95"/><text x="964" y="288" font-family="Inter,Arial,sans-serif" font-size="13" font-weight="700" fill="#06111f" fill-opacity="1" text-anchor="middle">2</text><text x="995" y="287" font-family="Inter,Arial,sans-serif" font-size="12" font-weight="600" fill="#e9f2ff" fill-opacity="1" text-anchor="start">Aft Utility / Steering</text><line x1="1230" y1="283" x2="1480" y2="283" stroke="#62d85f" stroke-opacity="0.85" stroke-width="8"/><text x="1515" y="287" font-family="Inter,Arial,sans-serif" font-size="12" font-weight="700" fill="#62d85f" fill-opacity="1" text-anchor="start">88</text><circle cx="964" cy="321" r="13" fill="#45a858" stroke="#d5e8ff" stroke-width="1" fill-opacity="0.95"/><text x="964" y="326" font-family="Inter,Arial,sans-serif" font-size="13" font-weight="700" fill="#06111f" fill-opacity="1" text-anchor="middle">3</text><text x="995" y="325" font-family="Inter,Arial,sans-serif" font-size="12" font-weight="600" fill="#e9f2ff" fill-opacity="1" text-anchor="start">Main Engine Room</text><line x1="1230" y1="321" x2="1480" y2="321" stroke="#f0c537" stroke-opacity="0.85" stroke-width="8"/><text x="1515" y="325" font-family="Inter,Arial,sans-serif" font-size="12" font-weight="700" fill="#f0c537" fill-opacity="1" text-anchor="start">82</text><circle cx="964" cy="359" r="13" fill="#d3b23e" stroke="#d5e8ff" stroke-width="1" fill-opacity="0.95"/><text x="964" y="364" font-family="Inter,Arial,sans-serif" font-size="13" font-weight="700" fill="#06111f" fill-opacity="1" text-anchor="middle">4</text><text x="995" y="363" font-family="Inter,Arial,sans-serif" font-size="12" font-weight="600" fill="#e9f2ff" fill-opacity="1" text-anchor="start">Generator &amp; Electrical</text><line x1="1230" y1="359" x2="1480" y2="359" stroke="#62d85f" stroke-opacity="0.85" stroke-width="8"/><text x="1515" y="363" font-family="Inter,Arial,sans-serif" font-size="12" font-weight="700" fill="#62d85f" fill-opacity="1" text-anchor="start">90</text><circle cx="964" cy="397" r="13" fill="#37c2bd" stroke="#d5e8ff" stroke-width="1" fill-opacity="0.95"/><text x="964" y="402" font-family="Inter,Arial,sans-serif" font-size="13" font-weight="700" fill="#06111f" fill-opacity="1" text-anchor="middle">5</text><text x="995" y="401" font-family="Inter,Arial,sans-serif" font-size="12" font-weight="600" fill="#e9f2ff" fill-opacity="1" text-anchor="start">Fuel / Lube / Cooling Systems</text><line x1="1230" y1="397" x2="1480" y2="397" stroke="#ff514a" stroke-opacity="0.85" stroke-width="8"/><text x="1515" y="401" font-family="Inter,Arial,sans-serif" font-size="12" font-weight="700" fill="#ff514a" fill-opacity="1" text-anchor="start">74</text><circle cx="964" cy="435" r="13" fill="#9b5cf6" stroke="#d5e8ff" stroke-width="1" fill-opacity="0.95"/><text x="964" y="440" font-family="Inter,Arial,sans-serif" font-size="13" font-weight="700" fill="#06111f" fill-opacity="1" text-anchor="middle">6</text><text x="995" y="439" font-family="Inter,Arial,sans-serif" font-size="12" font-weight="600" fill="#e9f2ff" fill-opacity="1" text-anchor="start">Deck Machinery &amp; Crane Base</text><line x1="1230" y1="435" x2="1480" y2="435" stroke="#62d85f" stroke-opacity="0.85" stroke-width="8"/><text x="1515" y="439" font-family="Inter,Arial,sans-serif" font-size="12" font-weight="700" fill="#62d85f" fill-opacity="1" text-anchor="start">91</text><rect x="260" y="530" width="650" height="390" rx="14" fill="url(#card)" fill-opacity="1" stroke="#1d405f" stroke-width="1"/><text x="284" y="564" font-family="Inter,Arial,sans-serif" font-size="16" font-weight="700" fill="#e9f2ff" fill-opacity="1" text-anchor="start">Variance explanation</text><text x="300" y="610" font-family="Inter,Arial,sans-serif" font-size="13" font-weight="400" fill="#e9f2ff" fill-opacity="1" text-anchor="start">Hull/weather effect</text><line x1="500" y1="605" x2="680" y2="605" stroke="#f0c537" stroke-opacity="0.9" stroke-width="8"/><text x="820" y="610" font-family="Inter,Arial,sans-serif" font-size="12" font-weight="end" fill="#9cb2c9" fill-opacity="1" text-anchor="start">45%</text><text x="300" y="668" font-family="Inter,Arial,sans-serif" font-size="13" font-weight="400" fill="#e9f2ff" fill-opacity="1" text-anchor="start">Engine efficiency</text><line x1="500" y1="663" x2="600" y2="663" stroke="#62d85f" stroke-opacity="0.9" stroke-width="8"/><text x="820" y="668" font-family="Inter,Arial,sans-serif" font-size="12" font-weight="end" fill="#9cb2c9" fill-opacity="1" text-anchor="start">25%</text><text x="300" y="726" font-family="Inter,Arial,sans-serif" font-size="13" font-weight="400" fill="#e9f2ff" fill-opacity="1" text-anchor="start">Weather/current</text><line x1="500" y1="721" x2="580" y2="721" stroke="#1684ff" stroke-opacity="0.9" stroke-width="8"/><text x="820" y="726" font-family="Inter,Arial,sans-serif" font-size="12" font-weight="end" fill="#9cb2c9" fill-opacity="1" text-anchor="start">20%</text><text x="300" y="784" font-family="Inter,Arial,sans-serif" font-size="13" font-weight="400" fill="#e9f2ff" fill-opacity="1" text-anchor="start">Other</text><line x1="500" y1="779" x2="540" y2="779" stroke="#9cb2c9" stroke-opacity="0.9" stroke-width="8"/><text x="820" y="784" font-family="Inter,Arial,sans-serif" font-size="12" font-weight="end" fill="#9cb2c9" fill-opacity="1" text-anchor="start">10%</text><rect x="930" y="530" width="650" height="390" rx="14" fill="url(#card)" fill-opacity="1" stroke="#1d405f" stroke-width="1"/><text x="954" y="564" font-family="Inter,Arial,sans-serif" font-size="16" font-weight="700" fill="#e9f2ff" fill-opacity="1" text-anchor="start">Data freshness</text><rect x="954" y="585" width="590" height="48" rx="8" fill="#0b233b" fill-opacity="1" stroke="#24445f" stroke-width="1"/><circle cx="974" cy="609" r="7" fill="#62d85f" stroke="none" stroke-width="1" fill-opacity="1"/><text x="996" y="605" font-family="Inter,Arial,sans-serif" font-size="13" font-weight="700" fill="#e9f2ff" fill-opacity="1" text-anchor="start">Main Engine 1</text><text x="996" y="624" font-family="Inter,Arial,sans-serif" font-size="11" font-weight="400" fill="#9cb2c9" fill-opacity="1" text-anchor="start">Live · updated 2 min ago</text><rect x="954" y="647" width="590" height="48" rx="8" fill="#0b233b" fill-opacity="1" stroke="#24445f" stroke-width="1"/><circle cx="974" cy="671" r="7" fill="#f0c537" stroke="none" stroke-width="1" fill-opacity="1"/><text x="996" y="667" font-family="Inter,Arial,sans-serif" font-size="13" font-weight="700" fill="#e9f2ff" fill-opacity="1" text-anchor="start">Fuel System</text><text x="996" y="686" font-family="Inter,Arial,sans-serif" font-size="11" font-weight="400" fill="#9cb2c9" fill-opacity="1" text-anchor="start">Partial · updated 4 hr ago</text><rect x="954" y="709" width="590" height="48" rx="8" fill="#0b233b" fill-opacity="1" stroke="#24445f" stroke-width="1"/><circle cx="974" cy="733" r="7" fill="#9cb2c9" stroke="none" stroke-width="1" fill-opacity="1"/><text x="996" y="729" font-family="Inter,Arial,sans-serif" font-size="13" font-weight="700" fill="#e9f2ff" fill-opacity="1" text-anchor="start">Deck Crane</text><text x="996" y="748" font-family="Inter,Arial,sans-serif" font-size="11" font-weight="400" fill="#9cb2c9" fill-opacity="1" text-anchor="start">Manual only · no telemetry</text><rect x="954" y="771" width="590" height="48" rx="8" fill="#0b233b" fill-opacity="1" stroke="#24445f" stroke-width="1"/><circle cx="974" cy="795" r="7" fill="#ff514a" stroke="none" stroke-width="1" fill-opacity="1"/><text x="996" y="791" font-family="Inter,Arial,sans-serif" font-size="13" font-weight="700" fill="#e9f2ff" fill-opacity="1" text-anchor="start">Navigation feed</text><text x="996" y="810" font-family="Inter,Arial,sans-serif" font-size="11" font-weight="400" fill="#9cb2c9" fill-opacity="1" text-anchor="start">Stale · last 18 hr ago</text>
</svg>